<?xml version="1.0" encoding="utf-8"?>
<!-- Generator: Adobe Illustrator 16.0.0, SVG Export Plug-In . SVG Version: 6.00 Build 0)  -->
<!DOCTYPE svg PUBLIC "-//W3C//DTD SVG 1.1//EN" "http://www.w3.org/Graphics/SVG/1.1/DTD/svg11.dtd">
<svg version="1.1" id="Layer_1" xmlns="http://www.w3.org/2000/svg" xmlns:xlink="http://www.w3.org/1999/xlink" x="0px" y="0px"
	 width="165px" height="29px" viewBox="0 0 165 29" enable-background="new 0 0 165 29" xml:space="preserve">
<g>
	<g>
		<g>
			<path id="SVGID_1_" fill="#9C9C9C" d="M36.296,14.25h-2.371v3.717h-1.226V8.644h3.716c2.061,0,3.091,0.893,3.091,2.677
				C39.506,13.274,38.436,14.25,36.296,14.25L36.296,14.25z M36.162,9.696h-2.237V13.2h2.237c1.395,0,2.092-0.619,2.092-1.853
				C38.254,10.248,37.557,9.696,36.162,9.696L36.162,9.696z M46.205,17.169c-0.579,0.703-1.397,1.054-2.456,1.054
				c-1.068,0-1.887-0.351-2.457-1.054c-0.534-0.647-0.8-1.515-0.8-2.598c0-1.101,0.261-1.97,0.787-2.611
				c0.57-0.684,1.393-1.025,2.47-1.025c1.067,0,1.891,0.346,2.469,1.038c0.534,0.649,0.801,1.515,0.801,2.598
				C47.019,15.654,46.748,16.521,46.205,17.169L46.205,17.169z M45.793,14.571v-0.599c-0.017-0.507-0.196-1.012-0.535-1.519
				c-0.303-0.461-0.802-0.692-1.497-0.692c-1.167,0-1.84,0.75-2.017,2.251c0,0.106-0.01,0.203-0.028,0.293v0.585l0.04,0.32
				c0.187,1.466,0.853,2.197,1.999,2.197c0.692,0,1.186-0.226,1.479-0.679c0.311-0.488,0.488-0.996,0.533-1.52l0.026-0.32V14.571
				L45.793,14.571z M54.865,17.968h-1.198l-1.399-5.42l-1.386,5.42h-1.225l-2.132-6.767h1.173l1.611,5.423l1.4-5.423h1.104
				l1.386,5.423l1.639-5.423h1.186L54.865,17.968L54.865,17.968z M58.742,14.851l0.041,0.48l0.12,0.532
				c0.079,0.339,0.284,0.689,0.612,1.054c0.302,0.327,0.747,0.491,1.333,0.491c0.462,0,0.862-0.121,1.2-0.365
				c0.336-0.243,0.55-0.588,0.639-1.033h1.092l-0.107,0.399c-0.036,0.151-0.088,0.29-0.16,0.413
				c-0.177,0.347-0.466,0.662-0.865,0.947c-0.471,0.344-1.057,0.496-1.759,0.453l-0.652-0.041c-0.081-0.011-0.227-0.041-0.44-0.095
				c-0.213-0.053-0.391-0.11-0.533-0.172c-0.826-0.354-1.359-1.013-1.599-1.972c-0.088-0.348-0.134-0.791-0.134-1.333
				c0-1.127,0.254-2.008,0.76-2.639c0.55-0.692,1.375-1.038,2.478-1.038c1.181,0,1.981,0.364,2.398,1.093
				c0.221,0.391,0.391,0.81,0.505,1.258c0.116,0.449,0.174,0.971,0.174,1.565L58.742,14.851L58.742,14.851z M62.591,13.599
				c0-0.054-0.008-0.142-0.026-0.267c-0.018-0.053-0.04-0.124-0.067-0.213c-0.089-0.32-0.263-0.625-0.519-0.918
				c-0.258-0.295-0.653-0.44-1.186-0.44c-0.559,0-1.016,0.159-1.366,0.479c-0.351,0.32-0.571,0.758-0.659,1.319
				c0,0.089-0.009,0.169-0.027,0.24v0.226h3.89L62.591,13.599L62.591,13.599z M67.177,12.361c-0.338,0.302-0.553,0.706-0.642,1.212
				c-0.028,0.159-0.045,0.347-0.054,0.559v0.36v3.476h-1.146v-6.767h1.146v1.306c0.178-0.471,0.466-0.844,0.866-1.119
				c0.399-0.275,0.852-0.421,1.358-0.439l0.333-0.014v0.826C68.253,11.761,67.633,11.96,67.177,12.361L67.177,12.361z
				 M70.983,14.851l0.041,0.48l0.119,0.532c0.08,0.339,0.285,0.689,0.612,1.054c0.302,0.327,0.747,0.491,1.333,0.491
				c0.461,0,0.861-0.121,1.199-0.365c0.337-0.243,0.55-0.588,0.639-1.033h1.093l-0.106,0.399c-0.036,0.151-0.089,0.29-0.161,0.413
				c-0.177,0.347-0.465,0.662-0.865,0.947c-0.471,0.344-1.056,0.496-1.758,0.453l-0.653-0.041c-0.08-0.011-0.227-0.041-0.439-0.095
				c-0.214-0.053-0.391-0.11-0.533-0.172c-0.826-0.354-1.359-1.013-1.598-1.972c-0.089-0.348-0.133-0.791-0.133-1.333
				c0-1.127,0.253-2.008,0.759-2.639c0.549-0.692,1.376-1.038,2.478-1.038c1.181,0,1.98,0.364,2.398,1.093
				c0.221,0.391,0.39,0.81,0.506,1.258c0.115,0.449,0.172,0.971,0.172,1.565L70.983,14.851L70.983,14.851z M74.833,13.599
				c0-0.054-0.009-0.142-0.026-0.267c-0.017-0.053-0.04-0.124-0.066-0.213c-0.089-0.32-0.262-0.625-0.52-0.918
				c-0.257-0.295-0.653-0.44-1.185-0.44c-0.56,0-1.015,0.159-1.366,0.479c-0.351,0.32-0.571,0.758-0.659,1.319
				c0,0.089-0.009,0.169-0.027,0.24v0.226h3.89L74.833,13.599L74.833,13.599z M82.385,17.968l0.068-0.931l-0.106,0.132l-0.093,0.147
				c-0.381,0.603-1.057,0.906-2.025,0.906c-1.03,0-1.79-0.371-2.278-1.107c-0.489-0.737-0.732-1.584-0.732-2.544v-0.266
				c0-0.098,0.008-0.191,0.026-0.281c0-0.692,0.244-1.397,0.733-2.118c0.435-0.647,1.176-0.972,2.226-0.972
				c0.532,0,0.953,0.08,1.264,0.24c0.356,0.168,0.662,0.47,0.917,0.905V8.644h1.147v9.324H82.385L82.385,17.968z M81.267,11.948
				c-0.212-0.115-0.438-0.173-0.679-0.173l-0.093-0.013h-0.08c-0.719,0-1.248,0.307-1.585,0.919c-0.267,0.489-0.4,1.119-0.4,1.891
				c0,1.644,0.546,2.577,1.639,2.797l0.413,0.04h0.173l0.186-0.04c0.417-0.086,0.791-0.336,1.119-0.744
				c0.33-0.409,0.493-1.102,0.493-2.079C82.453,13.248,82.058,12.383,81.267,11.948L81.267,11.948z M95.691,17.01
				c-0.471,0.709-1.183,1.111-2.137,1.198l-0.146,0.015h-0.136c-0.81,0-1.498-0.334-2.068-0.998l-0.079-0.096l-0.056-0.092
				l0.041,0.931h-1.146V8.644h1.146v3.437c0.474-0.763,1.201-1.146,2.189-1.146c1.033,0,1.813,0.36,2.338,1.079
				c0.453,0.63,0.682,1.483,0.682,2.558C96.32,15.575,96.111,16.389,95.691,17.01L95.691,17.01z M94.521,12.453
				c-0.426-0.452-0.848-0.679-1.266-0.679l-0.094-0.013h-0.079l-0.399,0.04c-0.18,0.017-0.375,0.093-0.586,0.227
				c-0.711,0.443-1.065,1.283-1.065,2.518c0,0.771,0.133,1.407,0.399,1.906c0.346,0.639,0.873,0.957,1.584,0.957h0.159
				c0.056,0,0.107-0.009,0.161-0.025c1.173-0.143,1.757-1.079,1.757-2.812C95.094,13.569,94.902,12.863,94.521,12.453L94.521,12.453
				z M100.639,19.045c-0.136,0.355-0.314,0.689-0.541,1.002c-0.227,0.311-0.599,0.457-1.113,0.439l-0.504-0.014
				c-0.197-0.009-0.34-0.027-0.429-0.055v-0.863l0.388,0.039l0.186,0.012c0.302,0.02,0.542-0.102,0.721-0.358
				c0.09-0.124,0.193-0.386,0.318-0.785l0.16-0.494l-2.877-6.767h1.373l2.131,5.477l1.76-5.477h1.157L100.639,19.045L100.639,19.045
				z M112.171,10.891v1.308h-1.203v5.769h-0.932H109.1v-5.769h-1.033v-1.308h1.033V10.3c0-0.681,0.182-1.188,0.545-1.522
				c0.359-0.333,0.91-0.5,1.648-0.5c0.328-0.004,0.622,0.011,0.878,0.045v1.49h-0.593c-0.246,0-0.41,0.05-0.49,0.149
				c-0.08,0.1-0.12,0.304-0.12,0.611v0.318H112.171L112.171,10.891z M119.378,14.893h-4.819c0.045,0.561,0.168,0.978,0.371,1.255
				c0.26,0.347,0.692,0.521,1.301,0.521c0.281,0,0.543-0.08,0.785-0.241c0.238-0.16,0.383-0.354,0.43-0.578h1.9
				c-0.16,0.719-0.533,1.283-1.115,1.691c-0.584,0.406-1.313,0.611-2.189,0.611c-1.075,0-1.902-0.334-2.486-0.995
				c-0.584-0.664-0.873-1.609-0.873-2.836c0-1.132,0.295-2.018,0.889-2.658c0.596-0.639,1.42-0.959,2.472-0.959
				c1.08,0,1.912,0.327,2.495,0.979c0.582,0.653,0.874,1.582,0.874,2.788C119.42,14.608,119.407,14.749,119.378,14.893
				L119.378,14.893z M117.127,12.706c-0.238-0.316-0.609-0.474-1.111-0.474c-0.481,0-0.85,0.185-1.1,0.553
				c-0.156,0.234-0.27,0.54-0.34,0.917h2.89C117.422,13.277,117.311,12.945,117.127,12.706L117.127,12.706z M126.787,14.893h-4.82
				c0.042,0.561,0.167,0.978,0.371,1.255c0.26,0.347,0.694,0.521,1.301,0.521c0.281,0,0.543-0.08,0.782-0.241
				c0.242-0.16,0.386-0.354,0.435-0.578h1.898c-0.16,0.719-0.531,1.283-1.115,1.691c-0.582,0.406-1.313,0.611-2.188,0.611
				c-1.076,0-1.905-0.334-2.488-0.995c-0.584-0.664-0.875-1.609-0.875-2.836c0-1.132,0.299-2.018,0.891-2.658
				c0.595-0.639,1.418-0.959,2.474-0.959c1.08,0,1.911,0.327,2.495,0.979c0.582,0.653,0.873,1.582,0.873,2.788
				C126.828,14.608,126.816,14.749,126.787,14.893L126.787,14.893z M124.536,12.706c-0.239-0.316-0.609-0.474-1.113-0.474
				c-0.481,0-0.847,0.185-1.099,0.553c-0.156,0.234-0.27,0.54-0.338,0.917h2.889C124.831,13.277,124.721,12.945,124.536,12.706
				L124.536,12.706z M133.623,17.968h-0.905v-0.903l-0.032,0.047c-0.517,0.693-1.19,1.041-2.027,1.041
				c-0.903,0-1.631-0.353-2.184-1.055c-0.555-0.703-0.828-1.629-0.828-2.778c0-1.084,0.273-1.958,0.826-2.622
				c0.549-0.664,1.271-0.996,2.172-0.996c0.801,0,1.447,0.338,1.938,1.015l0.078,0.104V8.407h0.93h0.937v9.561H133.623
				L133.623,17.968z M132.329,12.863c-0.284-0.364-0.673-0.546-1.171-0.546c-0.499,0-0.889,0.191-1.172,0.575
				c-0.282,0.384-0.422,0.917-0.422,1.597c0,0.668,0.139,1.189,0.418,1.564c0.279,0.377,0.668,0.563,1.168,0.563
				c0.504,0,0.895-0.195,1.179-0.593c0.28-0.395,0.422-0.942,0.422-1.646C132.751,13.731,132.609,13.227,132.329,12.863
				L132.329,12.863z M143.523,17.968h-0.95h-0.956l-1.085-5.259l-1.113,5.259h-0.951h-0.956l-2.056-7.077h0.989h0.988l1.133,5.198
				h0.007l1.053-5.198h0.931h0.938l1.047,5.21l1.148-5.21h0.938h0.944L143.523,17.968L143.523,17.968z M146.605,10.066v-1.73h1.897
				v1.73H146.605L146.605,10.066z M148.492,10.891v7.077h-0.932h-0.937v-7.077h0.931H148.492L148.492,10.891z M155.73,17.968h-0.938
				v-4.422c0-0.438-0.093-0.761-0.281-0.973c-0.188-0.209-0.479-0.315-0.867-0.315c-0.49,0-0.867,0.147-1.131,0.442
				c-0.263,0.295-0.395,0.72-0.395,1.275v3.994h-0.93h-0.936v-7.078h0.885h0.889v1.048c0.076-0.126,0.156-0.245,0.242-0.357
				c0.459-0.586,1.129-0.879,2.004-0.879c0.744,0,1.33,0.221,1.754,0.664c0.422,0.442,0.634,1.056,0.634,1.84v4.762L155.73,17.968
				L155.73,17.968z M163.959,17.968h-0.902v-0.903l-0.033,0.047c-0.516,0.693-1.191,1.041-2.028,1.041
				c-0.903,0-1.63-0.353-2.183-1.055c-0.555-0.703-0.828-1.629-0.828-2.778c0-1.084,0.271-1.958,0.824-2.622
				c0.551-0.664,1.274-0.996,2.174-0.996c0.801,0,1.447,0.338,1.938,1.015l0.079,0.104V8.407h0.931h0.937v9.561H163.959
				L163.959,17.968z M162.666,12.863c-0.283-0.364-0.673-0.546-1.173-0.546c-0.497,0-0.888,0.191-1.17,0.575
				c-0.281,0.384-0.423,0.917-0.423,1.597c0,0.668,0.14,1.189,0.42,1.564c0.279,0.377,0.668,0.563,1.168,0.563
				c0.503,0,0.895-0.195,1.178-0.593c0.281-0.395,0.423-0.942,0.423-1.646C163.089,13.731,162.947,13.227,162.666,12.863
				L162.666,12.863z"/>
		</g>
		<g>
			<defs>
				<path id="SVGID_2_" d="M36.296,14.25h-2.371v3.717h-1.226V8.644h3.716c2.061,0,3.091,0.893,3.091,2.677
					C39.506,13.274,38.436,14.25,36.296,14.25L36.296,14.25z M36.162,9.696h-2.237V13.2h2.237c1.395,0,2.092-0.619,2.092-1.853
					C38.254,10.248,37.557,9.696,36.162,9.696L36.162,9.696z M46.205,17.169c-0.579,0.703-1.397,1.054-2.456,1.054
					c-1.068,0-1.887-0.351-2.457-1.054c-0.534-0.647-0.8-1.515-0.8-2.598c0-1.101,0.261-1.97,0.787-2.611
					c0.57-0.684,1.393-1.025,2.47-1.025c1.067,0,1.891,0.346,2.469,1.038c0.534,0.649,0.801,1.515,0.801,2.598
					C47.019,15.654,46.748,16.521,46.205,17.169L46.205,17.169z M45.793,14.571v-0.599c-0.017-0.507-0.196-1.012-0.535-1.519
					c-0.303-0.461-0.802-0.692-1.497-0.692c-1.167,0-1.84,0.75-2.017,2.251c0,0.106-0.01,0.203-0.028,0.293v0.585l0.04,0.32
					c0.187,1.466,0.853,2.197,1.999,2.197c0.692,0,1.186-0.226,1.479-0.679c0.311-0.488,0.488-0.996,0.533-1.52l0.026-0.32V14.571
					L45.793,14.571z M54.865,17.968h-1.198l-1.399-5.42l-1.386,5.42h-1.225l-2.132-6.767h1.173l1.611,5.423l1.4-5.423h1.104
					l1.386,5.423l1.639-5.423h1.186L54.865,17.968L54.865,17.968z M58.742,14.851l0.041,0.48l0.12,0.532
					c0.079,0.339,0.284,0.689,0.612,1.054c0.302,0.327,0.747,0.491,1.333,0.491c0.462,0,0.862-0.121,1.2-0.365
					c0.336-0.243,0.55-0.588,0.639-1.033h1.092l-0.107,0.399c-0.036,0.151-0.088,0.29-0.16,0.413
					c-0.177,0.347-0.466,0.662-0.865,0.947c-0.471,0.344-1.057,0.496-1.759,0.453l-0.652-0.041c-0.081-0.011-0.227-0.041-0.44-0.095
					c-0.213-0.053-0.391-0.11-0.533-0.172c-0.826-0.354-1.359-1.013-1.599-1.972c-0.088-0.348-0.134-0.791-0.134-1.333
					c0-1.127,0.254-2.008,0.76-2.639c0.55-0.692,1.375-1.038,2.478-1.038c1.181,0,1.981,0.364,2.398,1.093
					c0.221,0.391,0.391,0.81,0.505,1.258c0.116,0.449,0.174,0.971,0.174,1.565L58.742,14.851L58.742,14.851z M62.591,13.599
					c0-0.054-0.008-0.142-0.026-0.267c-0.018-0.053-0.04-0.124-0.067-0.213c-0.089-0.32-0.263-0.625-0.519-0.918
					c-0.258-0.295-0.653-0.44-1.186-0.44c-0.559,0-1.016,0.159-1.366,0.479c-0.351,0.32-0.571,0.758-0.659,1.319
					c0,0.089-0.009,0.169-0.027,0.24v0.226h3.89L62.591,13.599L62.591,13.599z M67.177,12.361c-0.338,0.302-0.553,0.706-0.642,1.212
					c-0.028,0.159-0.045,0.347-0.054,0.559v0.36v3.476h-1.146v-6.767h1.146v1.306c0.178-0.471,0.466-0.844,0.866-1.119
					c0.399-0.275,0.852-0.421,1.358-0.439l0.333-0.014v0.826C68.253,11.761,67.633,11.96,67.177,12.361L67.177,12.361z
					 M70.983,14.851l0.041,0.48l0.119,0.532c0.08,0.339,0.285,0.689,0.612,1.054c0.302,0.327,0.747,0.491,1.333,0.491
					c0.461,0,0.861-0.121,1.199-0.365c0.337-0.243,0.55-0.588,0.639-1.033h1.093l-0.106,0.399c-0.036,0.151-0.089,0.29-0.161,0.413
					c-0.177,0.347-0.465,0.662-0.865,0.947c-0.471,0.344-1.056,0.496-1.758,0.453l-0.653-0.041c-0.08-0.011-0.227-0.041-0.439-0.095
					c-0.214-0.053-0.391-0.11-0.533-0.172c-0.826-0.354-1.359-1.013-1.598-1.972c-0.089-0.348-0.133-0.791-0.133-1.333
					c0-1.127,0.253-2.008,0.759-2.639c0.549-0.692,1.376-1.038,2.478-1.038c1.181,0,1.98,0.364,2.398,1.093
					c0.221,0.391,0.39,0.81,0.506,1.258c0.115,0.449,0.172,0.971,0.172,1.565L70.983,14.851L70.983,14.851z M74.833,13.599
					c0-0.054-0.009-0.142-0.026-0.267c-0.017-0.053-0.04-0.124-0.066-0.213c-0.089-0.32-0.262-0.625-0.52-0.918
					c-0.257-0.295-0.653-0.44-1.185-0.44c-0.56,0-1.015,0.159-1.366,0.479c-0.351,0.32-0.571,0.758-0.659,1.319
					c0,0.089-0.009,0.169-0.027,0.24v0.226h3.89L74.833,13.599L74.833,13.599z M82.385,17.968l0.068-0.931l-0.106,0.132
					l-0.093,0.147c-0.381,0.603-1.057,0.906-2.025,0.906c-1.03,0-1.79-0.371-2.278-1.107c-0.489-0.737-0.732-1.584-0.732-2.544
					v-0.266c0-0.098,0.008-0.191,0.026-0.281c0-0.692,0.244-1.397,0.733-2.118c0.435-0.647,1.176-0.972,2.226-0.972
					c0.532,0,0.953,0.08,1.264,0.24c0.356,0.168,0.662,0.47,0.917,0.905V8.644h1.147v9.324H82.385L82.385,17.968z M81.267,11.948
					c-0.212-0.115-0.438-0.173-0.679-0.173l-0.093-0.013h-0.08c-0.719,0-1.248,0.307-1.585,0.919c-0.267,0.489-0.4,1.119-0.4,1.891
					c0,1.644,0.546,2.577,1.639,2.797l0.413,0.04h0.173l0.186-0.04c0.417-0.086,0.791-0.336,1.119-0.744
					c0.33-0.409,0.493-1.102,0.493-2.079C82.453,13.248,82.058,12.383,81.267,11.948L81.267,11.948z M95.691,17.01
					c-0.471,0.709-1.183,1.111-2.137,1.198l-0.146,0.015h-0.136c-0.81,0-1.498-0.334-2.068-0.998l-0.079-0.096l-0.056-0.092
					l0.041,0.931h-1.146V8.644h1.146v3.437c0.474-0.763,1.201-1.146,2.189-1.146c1.033,0,1.813,0.36,2.338,1.079
					c0.453,0.63,0.682,1.483,0.682,2.558C96.32,15.575,96.111,16.389,95.691,17.01L95.691,17.01z M94.521,12.453
					c-0.426-0.452-0.848-0.679-1.266-0.679l-0.094-0.013h-0.079l-0.399,0.04c-0.18,0.017-0.375,0.093-0.586,0.227
					c-0.711,0.443-1.065,1.283-1.065,2.518c0,0.771,0.133,1.407,0.399,1.906c0.346,0.639,0.873,0.957,1.584,0.957h0.159
					c0.056,0,0.107-0.009,0.161-0.025c1.173-0.143,1.757-1.079,1.757-2.812C95.094,13.569,94.902,12.863,94.521,12.453
					L94.521,12.453z M100.639,19.045c-0.136,0.355-0.314,0.689-0.541,1.002c-0.227,0.311-0.599,0.457-1.113,0.439l-0.504-0.014
					c-0.197-0.009-0.34-0.027-0.429-0.055v-0.863l0.388,0.039l0.186,0.012c0.302,0.02,0.542-0.102,0.721-0.358
					c0.09-0.124,0.193-0.386,0.318-0.785l0.16-0.494l-2.877-6.767h1.373l2.131,5.477l1.76-5.477h1.157L100.639,19.045
					L100.639,19.045z M112.171,10.891v1.308h-1.203v5.769h-0.932H109.1v-5.769h-1.033v-1.308h1.033V10.3
					c0-0.681,0.182-1.188,0.545-1.522c0.359-0.333,0.91-0.5,1.648-0.5c0.328-0.004,0.622,0.011,0.878,0.045v1.49h-0.593
					c-0.246,0-0.41,0.05-0.49,0.149c-0.08,0.1-0.12,0.304-0.12,0.611v0.318H112.171L112.171,10.891z M119.378,14.893h-4.819
					c0.045,0.561,0.168,0.978,0.371,1.255c0.26,0.347,0.692,0.521,1.301,0.521c0.281,0,0.543-0.08,0.785-0.241
					c0.238-0.16,0.383-0.354,0.43-0.578h1.9c-0.16,0.719-0.533,1.283-1.115,1.691c-0.584,0.406-1.313,0.611-2.189,0.611
					c-1.075,0-1.902-0.334-2.486-0.995c-0.584-0.664-0.873-1.609-0.873-2.836c0-1.132,0.295-2.018,0.889-2.658
					c0.596-0.639,1.42-0.959,2.472-0.959c1.08,0,1.912,0.327,2.495,0.979c0.582,0.653,0.874,1.582,0.874,2.788
					C119.42,14.608,119.407,14.749,119.378,14.893L119.378,14.893z M117.127,12.706c-0.238-0.316-0.609-0.474-1.111-0.474
					c-0.481,0-0.85,0.185-1.1,0.553c-0.156,0.234-0.27,0.54-0.34,0.917h2.89C117.422,13.277,117.311,12.945,117.127,12.706
					L117.127,12.706z M126.787,14.893h-4.82c0.042,0.561,0.167,0.978,0.371,1.255c0.26,0.347,0.694,0.521,1.301,0.521
					c0.281,0,0.543-0.08,0.782-0.241c0.242-0.16,0.386-0.354,0.435-0.578h1.898c-0.16,0.719-0.531,1.283-1.115,1.691
					c-0.582,0.406-1.313,0.611-2.188,0.611c-1.076,0-1.905-0.334-2.488-0.995c-0.584-0.664-0.875-1.609-0.875-2.836
					c0-1.132,0.299-2.018,0.891-2.658c0.595-0.639,1.418-0.959,2.474-0.959c1.08,0,1.911,0.327,2.495,0.979
					c0.582,0.653,0.873,1.582,0.873,2.788C126.828,14.608,126.816,14.749,126.787,14.893L126.787,14.893z M124.536,12.706
					c-0.239-0.316-0.609-0.474-1.113-0.474c-0.481,0-0.847,0.185-1.099,0.553c-0.156,0.234-0.27,0.54-0.338,0.917h2.889
					C124.831,13.277,124.721,12.945,124.536,12.706L124.536,12.706z M133.623,17.968h-0.905v-0.903l-0.032,0.047
					c-0.517,0.693-1.19,1.041-2.027,1.041c-0.903,0-1.631-0.353-2.184-1.055c-0.555-0.703-0.828-1.629-0.828-2.778
					c0-1.084,0.273-1.958,0.826-2.622c0.549-0.664,1.271-0.996,2.172-0.996c0.801,0,1.447,0.338,1.938,1.015l0.078,0.104V8.407h0.93
					h0.937v9.561H133.623L133.623,17.968z M132.329,12.863c-0.284-0.364-0.673-0.546-1.171-0.546c-0.499,0-0.889,0.191-1.172,0.575
					c-0.282,0.384-0.422,0.917-0.422,1.597c0,0.668,0.139,1.189,0.418,1.564c0.279,0.377,0.668,0.563,1.168,0.563
					c0.504,0,0.895-0.195,1.179-0.593c0.28-0.395,0.422-0.942,0.422-1.646C132.751,13.731,132.609,13.227,132.329,12.863
					L132.329,12.863z M143.523,17.968h-0.95h-0.956l-1.085-5.259l-1.113,5.259h-0.951h-0.956l-2.056-7.077h0.989h0.988l1.133,5.198
					h0.007l1.053-5.198h0.931h0.938l1.047,5.21l1.148-5.21h0.938h0.944L143.523,17.968L143.523,17.968z M146.605,10.066v-1.73h1.897
					v1.73H146.605L146.605,10.066z M148.492,10.891v7.077h-0.932h-0.937v-7.077h0.931H148.492L148.492,10.891z M155.73,17.968
					h-0.938v-4.422c0-0.438-0.093-0.761-0.281-0.973c-0.188-0.209-0.479-0.315-0.867-0.315c-0.49,0-0.867,0.147-1.131,0.442
					c-0.263,0.295-0.395,0.72-0.395,1.275v3.994h-0.93h-0.936v-7.078h0.885h0.889v1.048c0.076-0.126,0.156-0.245,0.242-0.357
					c0.459-0.586,1.129-0.879,2.004-0.879c0.744,0,1.33,0.221,1.754,0.664c0.422,0.442,0.634,1.056,0.634,1.84v4.762L155.73,17.968
					L155.73,17.968z M163.959,17.968h-0.902v-0.903l-0.033,0.047c-0.516,0.693-1.191,1.041-2.028,1.041
					c-0.903,0-1.63-0.353-2.183-1.055c-0.555-0.703-0.828-1.629-0.828-2.778c0-1.084,0.271-1.958,0.824-2.622
					c0.551-0.664,1.274-0.996,2.174-0.996c0.801,0,1.447,0.338,1.938,1.015l0.079,0.104V8.407h0.931h0.937v9.561H163.959
					L163.959,17.968z M162.666,12.863c-0.283-0.364-0.673-0.546-1.173-0.546c-0.497,0-0.888,0.191-1.17,0.575
					c-0.281,0.384-0.423,0.917-0.423,1.597c0,0.668,0.14,1.189,0.42,1.564c0.279,0.377,0.668,0.563,1.168,0.563
					c0.503,0,0.895-0.195,1.178-0.593c0.281-0.395,0.423-0.942,0.423-1.646C163.089,13.731,162.947,13.227,162.666,12.863
					L162.666,12.863z"/>
			</defs>
			<use xlink:href="#SVGID_2_"  overflow="visible" fill="#9C9C9C"/>
			<clipPath id="SVGID_4_">
				<use xlink:href="#SVGID_2_"  overflow="visible"/>
			</clipPath>
		</g>
	</g>
	<g>
		<g>
			<path id="SVGID_3_" fill="#9C9C9C" d="M12.678,12.379v2.22h5.55v3.331h-5.55v3.33H12.65c-0.28,3.111-2.893,5.551-6.079,5.551
				c-3.371,0-6.104-2.732-6.104-6.104c0-3.185,2.44-5.797,5.55-6.079V14.6h3.33v-2.22h-3.33v-0.29
				c-1.939-0.687-3.331-2.532-3.331-4.706c0-2.759,2.236-4.996,4.995-4.996c2.571,0,4.688,1.943,4.963,4.441h0.033v2.22h8.88v3.33
				H12.678L12.678,12.379z M9.348,6.829H9.246c-0.229-0.646-0.838-1.11-1.563-1.11c-0.919,0-1.665,0.745-1.665,1.665
				c0,0.724,0.465,1.333,1.11,1.563V9.05h2.22V6.829L9.348,6.829z M9.348,17.93h-3.33v0.057c-1.267,0.258-2.221,1.375-2.221,2.72
				c0,1.532,1.243,2.774,2.774,2.774c1.344,0,2.462-0.953,2.721-2.221h0.056V17.93L9.348,17.93z"/>
		</g>
		<g>
			<defs>
				<path id="SVGID_5_" d="M12.678,12.379v2.22h5.55v3.331h-5.55v3.33H12.65c-0.28,3.111-2.893,5.551-6.079,5.551
					c-3.371,0-6.104-2.732-6.104-6.104c0-3.185,2.44-5.797,5.55-6.079V14.6h3.33v-2.22h-3.33v-0.29
					c-1.939-0.687-3.331-2.532-3.331-4.706c0-2.759,2.236-4.996,4.995-4.996c2.571,0,4.688,1.943,4.963,4.441h0.033v2.22h8.88v3.33
					H12.678L12.678,12.379z M9.348,6.829H9.246c-0.229-0.646-0.838-1.11-1.563-1.11c-0.919,0-1.665,0.745-1.665,1.665
					c0,0.724,0.465,1.333,1.11,1.563V9.05h2.22V6.829L9.348,6.829z M9.348,17.93h-3.33v0.057c-1.267,0.258-2.221,1.375-2.221,2.72
					c0,1.532,1.243,2.774,2.774,2.774c1.344,0,2.462-0.953,2.721-2.221h0.056V17.93L9.348,17.93z"/>
			</defs>
			<use xlink:href="#SVGID_5_"  overflow="visible" fill="#9C9C9C"/>
			<clipPath id="SVGID_6_">
				<use xlink:href="#SVGID_5_"  overflow="visible"/>
			</clipPath>
		</g>
	</g>
</g>
</svg>
